<?xml version="1.0" standalone="no"?>
<!DOCTYPE svg PUBLIC "-//W3C//DTD SVG 20010904//EN"
 "http://www.w3.org/TR/2001/REC-SVG-20010904/DTD/svg10.dtd">
<svg version="1.0" xmlns="http://www.w3.org/2000/svg"
 width="512.000000pt" height="512.000000pt" viewBox="0 0 512.000000 512.000000"
 preserveAspectRatio="xMidYMid meet">
<metadata>
Created by potrace 1.14, written by Peter Selinger 2001-2017
</metadata>
<g transform="translate(0.000000,512.000000) scale(0.100000,-0.100000)"
fill="#000000" stroke="none">
<path d="M1333 5040 c-21 -9 -51 -49 -83 -115 -13 -24 -23 -30 -55 -32 -22 -2
-60 -8 -85 -14 -25 -6 -52 -12 -60 -14 -32 -6 -157 -60 -192 -82 -21 -13 -40
-23 -43 -23 -8 0 -169 -123 -192 -147 -12 -13 -27 -23 -33 -23 -5 0 -10 -6
-10 -14 0 -8 -9 -18 -20 -21 -11 -3 -20 -12 -20 -18 0 -7 -10 -20 -23 -30 -42
-31 -173 -216 -198 -279 -6 -16 -15 -28 -21 -28 -5 0 -7 -4 -4 -9 3 -5 -1 -22
-10 -40 -8 -17 -16 -40 -17 -51 -1 -11 -5 -20 -9 -20 -4 0 -7 -3 -7 -7 1 -5 0
-10 -1 -13 -1 -3 -4 -16 -6 -30 -2 -14 -6 -41 -10 -60 -3 -19 -7 -46 -9 -60
-2 -14 -3 -28 -4 -32 -1 -5 -8 -8 -17 -8 -33 0 -114 -55 -124 -84 -13 -38 -13
-66 1 -66 5 0 8 -4 4 -9 -3 -5 14 -29 38 -53 52 -52 97 -90 97 -83 0 3 10 -3
22 -15 12 -11 28 -20 35 -20 7 0 25 -19 40 -42 16 -24 34 -49 40 -56 7 -7 13
-17 13 -21 0 -4 24 -32 54 -63 59 -63 58 -52 9 -138 -28 -49 -72 -187 -79
-246 -5 -41 -3 -52 14 -67 25 -22 72 -28 89 -11 16 15 33 59 40 99 5 33 53
157 63 165 4 3 10 13 13 23 7 17 10 16 35 -10 15 -16 40 -38 55 -48 16 -10 25
-21 20 -24 -15 -11 -25 -69 -26 -154 -1 -79 16 -101 72 -93 45 7 57 27 64 109
7 75 13 91 28 65 5 -9 16 -24 24 -32 8 -8 15 -17 15 -19 0 -2 36 -57 79 -122
67 -98 80 -123 77 -152 -1 -19 1 -36 5 -39 4 -2 5 -13 2 -24 -3 -11 0 -20 6
-20 5 0 8 -7 5 -15 -4 -8 -1 -21 5 -29 6 -7 8 -16 4 -19 -3 -4 -1 -7 5 -7 7 0
11 -3 11 -7 -3 -17 14 -73 22 -73 5 0 9 -7 9 -15 0 -8 4 -15 8 -15 5 0 14 -16
22 -35 7 -19 17 -32 22 -29 4 3 8 -2 8 -10 0 -9 8 -24 18 -35 9 -10 27 -31 39
-47 32 -43 92 -104 143 -146 44 -36 180 -113 180 -102 0 3 14 -3 30 -13 17 -9
30 -20 30 -24 0 -3 12 -19 26 -35 14 -16 46 -53 72 -83 97 -112 311 -331 324
-331 5 0 6 -4 3 -10 -3 -5 -2 -10 2 -10 5 0 26 -16 48 -36 22 -19 57 -48 77
-63 21 -16 34 -31 31 -35 -3 -3 -1 -6 5 -6 20 0 127 -98 172 -156 63 -82 128
-154 269 -297 141 -144 177 -177 185 -170 3 4 6 1 6 -5 0 -12 193 -172 209
-172 5 0 11 -4 13 -8 4 -11 141 -101 193 -127 22 -11 42 -23 43 -27 2 -5 8 -8
14 -8 6 0 38 -12 72 -26 96 -41 99 -42 141 -50 22 -4 47 -9 55 -11 57 -13 154
-1 205 25 32 16 100 85 104 105 14 74 5 126 -37 217 -14 30 -24 58 -24 62 1 5
-3 8 -9 8 -5 0 -7 5 -4 10 3 6 2 10 -3 10 -5 0 -15 12 -22 28 -8 15 -37 67
-64 116 -27 49 -49 96 -49 103 0 7 -5 13 -10 13 -6 0 -8 3 -4 6 6 6 31 -16
133 -114 18 -17 36 -32 39 -32 3 0 16 -10 28 -23 23 -23 68 -62 152 -132 26
-22 55 -47 65 -55 10 -8 32 -26 50 -40 19 -14 44 -35 56 -47 13 -13 27 -23 31
-23 5 0 16 -8 25 -17 17 -19 22 -22 123 -98 33 -25 65 -48 70 -53 6 -4 26 -18
45 -32 19 -13 37 -27 40 -30 12 -13 70 -50 79 -50 5 0 11 -4 13 -8 4 -11 97
-72 109 -72 5 0 9 -5 9 -11 0 -5 4 -8 9 -5 5 4 11 3 13 -1 4 -10 54 -41 91
-56 15 -6 27 -15 27 -19 0 -4 6 -8 14 -8 8 0 27 -5 43 -12 15 -6 30 -12 33
-12 3 -1 10 -4 15 -7 6 -3 26 -6 46 -8 31 -2 38 1 48 27 10 23 10 39 1 72 -13
50 -68 173 -80 180 -5 3 -14 17 -19 30 -12 28 -26 51 -58 97 -13 17 -23 35
-23 39 0 4 -9 15 -21 25 -11 9 -19 20 -17 23 2 3 -15 29 -36 58 -98 133 -182
244 -191 255 -5 6 -19 23 -30 38 -11 14 -29 37 -40 50 -11 13 -31 38 -45 55
-14 18 -35 43 -47 56 -13 13 -23 26 -23 30 0 4 -12 19 -27 34 -16 16 -41 45
-58 66 -16 20 -45 52 -62 71 -18 18 -33 36 -33 38 0 4 -64 75 -127 142 -13 13
-23 26 -23 29 0 5 71 -32 165 -86 39 -23 87 -48 108 -57 20 -9 37 -20 37 -25
0 -4 5 -8 10 -8 6 0 29 -9 53 -19 103 -47 169 -51 224 -16 44 28 93 90 101
124 11 51 17 141 9 141 -4 0 -6 4 -2 9 7 13 -24 149 -36 157 -5 3 -7 9 -4 13
14 24 -178 354 -276 472 -22 26 -39 49 -39 52 0 3 -15 21 -32 40 -18 19 -64
68 -101 110 -104 116 -280 283 -347 330 -13 9 -20 17 -15 18 6 0 3 3 -6 7 -31
14 -122 98 -177 166 -32 39 -90 104 -129 145 -40 41 -73 77 -73 78 0 2 -25 27
-56 56 -30 28 -79 75 -108 102 -29 28 -77 71 -107 96 -30 26 -69 61 -86 78
-18 17 -33 29 -33 26 0 -3 -12 5 -26 18 -15 12 -38 47 -51 77 -43 96 -57 125
-63 130 -3 3 -17 21 -31 40 -33 44 -93 104 -149 150 -24 19 -48 40 -54 45 -20
17 -68 45 -146 82 -111 54 -116 56 -144 56 -14 0 -26 2 -26 6 0 8 -54 6 -68
-3 -7 -4 -12 -2 -12 5 0 7 -3 9 -7 6 -7 -8 -62 24 -112 64 -19 16 -38 26 -43
23 -4 -3 -8 -1 -8 4 0 6 -20 22 -44 36 -25 14 -51 32 -58 39 -7 7 -22 17 -33
21 -18 7 -18 8 -3 17 9 5 43 12 75 15 64 6 103 21 103 40 0 7 6 15 13 17 9 4
9 6 0 6 -7 1 -10 8 -7 16 3 8 -5 25 -18 38 -21 21 -32 23 -88 21 -36 -1 -84
-9 -107 -17 -24 -8 -40 -11 -37 -6 3 5 -2 9 -10 9 -9 0 -16 5 -16 11 0 7 -16
27 -35 45 l-35 33 22 15 c11 8 25 13 30 10 4 -3 8 0 8 6 0 7 7 10 15 6 8 -3
15 -2 15 3 0 7 13 14 50 25 3 1 10 4 15 7 6 4 20 5 33 4 12 -1 22 2 22 7 0 4
9 8 20 8 65 0 101 56 69 109 -17 29 -22 30 -67 27 -56 -5 -181 -45 -253 -81
-27 -14 -52 -25 -55 -24 -4 0 -10 -5 -14 -11 -5 -8 -23 3 -55 34 -45 45 -160
126 -178 126 -4 0 -5 5 -2 10 3 6 2 10 -3 10 -5 0 -17 18 -28 40 -10 22 -22
40 -26 40 -5 0 -8 4 -8 9 0 16 -97 111 -125 121 -31 12 -42 12 -72 0z"/>
</g>
</svg>
